<mxfile host="65bd71144e">
    <diagram id="jBarUr27Q658x48IyXXY" name="第 1 页">
        <mxGraphModel dx="807" dy="1630" grid="0" gridSize="10" guides="1" tooltips="1" connect="1" arrows="1" fold="1" page="0" pageScale="1" pageWidth="827" pageHeight="1169" math="0" shadow="0">
            <root>
                <mxCell id="0"/>
                <mxCell id="1" parent="0"/>
                <mxCell id="2" value="" style="rounded=1;whiteSpace=wrap;html=1;" vertex="1" parent="1">
                    <mxGeometry x="220" y="310" width="810" height="480" as="geometry"/>
                </mxCell>
                <mxCell id="3" value="&lt;font style=&quot;font-size: 20px&quot;&gt;Web server&lt;/font&gt;" style="text;html=1;align=center;verticalAlign=middle;resizable=0;points=[];autosize=1;strokeColor=none;" vertex="1" parent="1">
                    <mxGeometry x="560" y="320" width="120" height="20" as="geometry"/>
                </mxCell>
                <mxCell id="4" value="" style="rounded=1;whiteSpace=wrap;html=1;" vertex="1" parent="1">
                    <mxGeometry x="294" y="380" width="166" height="340" as="geometry"/>
                </mxCell>
                <mxCell id="5" value="&lt;span&gt;&lt;font style=&quot;font-size: 15px&quot;&gt;Welcome&lt;/font&gt;&lt;/span&gt;" style="text;html=1;align=center;verticalAlign=middle;resizable=0;points=[];autosize=1;strokeColor=none;" vertex="1" parent="1">
                    <mxGeometry x="325" y="400" width="80" height="20" as="geometry"/>
                </mxCell>
                <mxCell id="6" value="公告" style="rounded=1;whiteSpace=wrap;html=1;" vertex="1" parent="1">
                    <mxGeometry x="325" y="440" width="105" height="240" as="geometry"/>
                </mxCell>
                <mxCell id="7" value="" style="rounded=1;whiteSpace=wrap;html=1;" vertex="1" parent="1">
                    <mxGeometry x="530" y="380" width="210" height="350" as="geometry"/>
                </mxCell>
                <mxCell id="8" value="&lt;font style=&quot;font-size: 15px&quot;&gt;展馆&lt;/font&gt;" style="text;html=1;align=center;verticalAlign=middle;resizable=0;points=[];autosize=1;strokeColor=none;" vertex="1" parent="1">
                    <mxGeometry x="610" y="400" width="50" height="20" as="geometry"/>
                </mxCell>
                <mxCell id="9" value="仪表盘" style="rounded=1;whiteSpace=wrap;html=1;" vertex="1" parent="1">
                    <mxGeometry x="580" y="440" width="120" height="40" as="geometry"/>
                </mxCell>
                <mxCell id="10" value="配置" style="rounded=1;whiteSpace=wrap;html=1;" vertex="1" parent="1">
                    <mxGeometry x="580" y="505" width="120" height="40" as="geometry"/>
                </mxCell>
                <mxCell id="11" value="模板库" style="rounded=1;whiteSpace=wrap;html=1;" vertex="1" parent="1">
                    <mxGeometry x="580" y="570" width="120" height="40" as="geometry"/>
                </mxCell>
                <mxCell id="12" value="数据集" style="rounded=1;whiteSpace=wrap;html=1;" vertex="1" parent="1">
                    <mxGeometry x="580" y="640" width="120" height="40" as="geometry"/>
                </mxCell>
                <mxCell id="13" value="" style="rounded=1;whiteSpace=wrap;html=1;" vertex="1" parent="1">
                    <mxGeometry x="810" y="380" width="170" height="350" as="geometry"/>
                </mxCell>
                <mxCell id="14" value="&lt;font style=&quot;font-size: 15px&quot;&gt;文档&lt;/font&gt;" style="text;html=1;align=center;verticalAlign=middle;resizable=0;points=[];autosize=1;strokeColor=none;" vertex="1" parent="1">
                    <mxGeometry x="870" y="400" width="50" height="20" as="geometry"/>
                </mxCell>
                <mxCell id="15" value="用户使用手册" style="rounded=1;whiteSpace=wrap;html=1;" vertex="1" parent="1">
                    <mxGeometry x="835" y="440" width="120" height="60" as="geometry"/>
                </mxCell>
                <mxCell id="17" value="数据结构图" style="rounded=1;whiteSpace=wrap;html=1;" vertex="1" parent="1">
                    <mxGeometry x="835" y="620" width="120" height="60" as="geometry"/>
                </mxCell>
                <mxCell id="18" value="服务器文件目录" style="rounded=1;whiteSpace=wrap;html=1;" vertex="1" parent="1">
                    <mxGeometry x="835" y="530" width="120" height="60" as="geometry"/>
                </mxCell>
            </root>
        </mxGraphModel>
    </diagram>
</mxfile>